# xmcd
#
# Track frame offsets:
#   150
#   28405
#   49450
#   70112
#   88042
#   116379
#   130472
#   150292
#   161992
#   183735
#
# Disc length: 2703 seconds
#
# Revision: 2
# Processed by: cddbd v1.5.1PL0 Copyright (c) Steve Scherf et al.
# Submitted via: Media_Universe 3.0
#
DISCID=8d0a8d0a
DTITLE=Various Artist - Classic R&B Oldies from the 70's
DYEAR=1900
DGENRE=R and B
TTITLE0=Always and Forever, Heatwave
TTITLE1=You got the Love, Rufus
TTITLE2=I got caught making Love, Clarence Carter
TTITLE3=I wanna get next to you, Rose Royce
TTITLE4=Me and Mrs. Jones, The Dramatics
TTITLE5=Ain't no woman(Like the one I got), Four Tops
TTITLE6=Reaching for the world, Harold Melvin and The Blue Notes
TTITLE7=Everlasting Love, Carl Carlton
TTITLE8=Let's stay Together, Al Green
TTITLE9=Float on, The Floaters
EXTD=
EXTT0=
EXTT1=
EXTT2=
EXTT3=
EXTT4=
EXTT5=
EXTT6=
EXTT7=
EXTT8=
EXTT9=
PLAYORDER=
